<svg width="118" height="68" viewBox="0 0 118 68" fill="none" xmlns="http://www.w3.org/2000/svg">
<g clip-path="url(#clip0_308_3118)">
<path d="M113.727 0.610725C115.749 0.610725 117.389 2.24926 117.389 4.27296V63.3155C117.389 65.3371 115.751 66.9777 113.727 66.9777H4.27296C2.25139 66.9777 0.610729 65.3392 0.610729 63.3155V4.27296C0.610729 2.25139 2.24926 0.610725 4.27296 0.610725H113.727ZM113.727 0H4.27296C1.91304 0 0 1.91304 0 4.27296V63.3155C0 65.6754 1.91304 67.5885 4.27296 67.5885H113.727C116.087 67.5885 118 65.6754 118 63.3155V4.27296C118 1.91304 116.087 0 113.727 0Z" fill="#3D3E41"/>
<path d="M30.6932 34.2512V40.8404H34.7269C35.6869 40.8404 36.4815 40.5155 37.1104 39.8657C37.7561 39.2159 38.0795 38.4424 38.0795 37.5463C38.0795 36.6675 37.7561 35.9038 37.1104 35.2525C36.4815 34.5853 35.6869 34.2512 34.7269 34.2512H30.6932ZM30.6932 43.1607V50.8042H28.2837V31.9323H34.6744C36.2984 31.9323 37.6781 32.4774 38.8131 33.5665C39.9657 34.6556 40.5416 35.9824 40.5416 37.5463C40.5416 39.1455 39.9657 40.48 38.8131 41.5517C37.6954 42.6249 36.3157 43.1607 34.6744 43.1607H30.6932Z" fill="#D6D6CD"/>
<path d="M43.8687 46.8496C43.8687 47.4824 44.1342 48.01 44.6673 48.4319C45.1998 48.8538 45.8239 49.0647 46.5404 49.0647C47.5529 49.0647 48.4566 48.6865 49.2507 47.931C50.0455 47.1759 50.443 46.2885 50.443 45.2687C49.6917 44.6713 48.6445 44.3731 47.3 44.3731C46.3217 44.3731 45.5054 44.6092 44.8504 45.0845C44.1959 45.5587 43.8687 46.1479 43.8687 46.8496ZM46.9853 37.4677C48.7664 37.4677 50.1722 37.9463 51.2025 38.903C52.2328 39.8618 52.748 41.175 52.748 42.844V50.8042H50.443V49.0114H50.3385C49.3423 50.488 48.0156 51.2251 46.3569 51.2251C44.9424 51.2251 43.7589 50.8042 42.808 49.9604C41.8553 49.1166 41.3801 48.0619 41.3801 46.7977C41.3801 45.4627 41.8819 44.3983 42.8861 43.6079C43.8905 42.8175 45.2306 42.4222 46.9072 42.4222C48.3386 42.4222 49.5172 42.6855 50.443 43.2126V42.6588C50.443 41.816 50.1115 41.0998 49.4479 40.5115C48.7843 39.9224 48.0069 39.628 47.1158 39.628C45.7718 39.628 44.7063 40.1988 43.9213 41.3408L41.7995 39.9976C42.9685 38.31 44.6977 37.4677 46.9853 37.4677Z" fill="#D6D6CD"/>
<path d="M70.507 51.0142C69.4588 51.0142 68.5904 50.6893 67.9013 50.0395C67.2107 49.3897 66.8565 48.4838 66.8396 47.3248V40.1032H64.5867V37.8882H66.8396V33.935H69.2492V37.8882H72.3922V40.1032H69.2492V46.5344C69.2492 47.3951 69.4154 47.9795 69.747 48.2864C70.079 48.5944 70.4539 48.7481 70.8733 48.7481C71.066 48.7481 71.254 48.7263 71.4371 48.6817C71.6202 48.638 71.7898 48.5808 71.948 48.5105L72.7069 50.6723C72.078 50.9002 71.3455 51.0142 70.507 51.0142ZM55.4718 37.8882H57.7772V39.9976H57.8813C58.598 38.3454 60.0736 37.5196 62.3087 37.5196L62.806 37.572V40.1032L61.7328 39.9976C60.6147 39.9976 59.6934 40.3443 58.9691 41.0391C58.2443 41.7326 57.8813 42.6153 57.8813 43.6868V50.8042H55.4718V37.8882Z" fill="#D6D6CD"/>
<path d="M74.8282 37.8882H77.1333V39.6814H77.2384C77.6041 39.0486 78.1685 38.5209 78.9275 38.0991C79.6874 37.6772 80.4769 37.4677 81.2985 37.4677C82.869 37.4677 84.0791 37.9196 84.9258 38.8241C85.7725 39.7298 86.1957 41.0159 86.1957 42.6855V50.8042H83.7861V42.8441C83.7346 40.7346 82.6777 39.6814 80.6175 39.6814C79.6561 39.6814 78.8527 40.0717 78.2065 40.8534C77.5613 41.6357 77.2384 42.5716 77.2384 43.6612V50.8042H74.8282V37.8882Z" fill="#D6D6CD"/>
<path d="M90.9368 42.7908H98.298C98.2276 41.8951 97.8652 41.1531 97.2098 40.5639C96.5559 39.9757 95.6783 39.6814 94.5771 39.6814C93.6702 39.6814 92.8885 39.9626 92.234 40.5237C91.5787 41.0877 91.1464 41.8427 90.9368 42.7908ZM94.7873 51.2251C92.9015 51.2251 91.3474 50.5753 90.1256 49.2742C88.9026 47.9746 88.292 46.3322 88.292 44.3464C88.292 42.3785 88.8848 40.7395 90.0727 39.4301C91.2606 38.1223 92.7786 37.4677 94.6301 37.4677C96.5342 37.4677 98.0483 38.0859 99.1751 39.325C100.301 40.5639 100.864 42.3001 100.864 44.5306L100.839 44.7949H90.7531C90.7884 46.0592 91.2076 47.079 92.0115 47.8524C92.8139 48.6259 93.7752 49.0114 94.8918 49.0114C96.4291 49.0114 97.6339 48.2389 98.5076 46.692L100.654 47.7467C100.078 48.8354 99.2797 49.6879 98.2579 50.3023C97.2363 50.9181 96.0797 51.2251 94.7873 51.2251Z" fill="#D6D6CD"/>
<path d="M105.475 50.8042H103.064V37.8882H105.37V39.9976H105.475C105.718 39.3114 106.22 38.7285 106.981 38.2446C107.74 37.7611 108.487 37.5196 109.22 37.5196C109.918 37.5196 110.512 37.6253 111.001 37.8363L110.267 40.1818C109.971 40.0597 109.499 39.9976 108.853 39.9976C107.944 39.9976 107.154 40.3661 106.483 41.1047C105.81 41.8427 105.475 42.7035 105.475 43.6869V50.8042Z" fill="#D6D6CD"/>
<path d="M33.7432 20.9038V22.5497H37.6577C37.5315 23.5889 37.1031 24.3973 36.373 24.9758C35.6617 25.5441 34.7851 25.8278 33.7432 25.8278C32.536 25.8278 31.5177 25.4015 30.6903 24.549C29.8624 23.7062 29.4483 22.6728 29.4483 21.4479C29.4483 20.2225 29.8624 19.1892 30.6903 18.3459C31.5177 17.4933 32.536 17.0671 33.7432 17.0671C34.8728 17.0671 35.8564 17.4594 36.694 18.243L37.8481 17.0816C36.6892 15.9745 35.3215 15.4207 33.7432 15.4207C32.6719 15.4207 31.6594 15.6952 30.7042 16.2437C29.7602 16.7829 29.0147 17.5229 28.4696 18.4637C27.9342 19.3851 27.6658 20.3796 27.6658 21.4479C27.6658 22.5255 27.9342 23.5248 28.4696 24.4462C29.0051 25.3772 29.7506 26.1119 30.7042 26.6512C31.6594 27.2001 32.6719 27.4741 33.7432 27.4741C35.36 27.4741 36.6988 26.9649 37.7604 25.9456C38.812 24.9359 39.3382 23.599 39.3382 21.9328C39.3382 21.541 39.3088 21.1972 39.2506 20.9038H33.7432Z" fill="#4F77C4"/>
<path d="M45.3274 25.2696C44.9082 25.7206 44.3974 25.9456 43.7941 25.9456C43.1801 25.9456 42.664 25.7206 42.2452 25.2696C41.8263 24.8186 41.6167 24.2605 41.6167 23.5937C41.6167 22.9081 41.8263 22.3489 42.2452 21.9183C42.664 21.4673 43.1801 21.2418 43.7941 21.2418C44.407 21.2418 44.9236 21.4673 45.342 21.9183C45.7607 22.3489 45.9703 22.9081 45.9703 23.5937C45.9703 24.2498 45.7559 24.8089 45.3274 25.2696ZM43.7941 19.7128C42.6929 19.7128 41.7729 20.0857 41.0327 20.8301C40.2925 21.5652 39.9224 22.4866 39.9224 23.5937C39.9224 24.6819 40.2973 25.6023 41.0471 26.3573C41.7873 27.1022 42.703 27.4741 43.7941 27.4741C44.8842 27.4741 45.7997 27.1022 46.5404 26.3573C47.2899 25.6023 47.6648 24.6819 47.6648 23.5937C47.6648 22.4866 47.2899 21.5652 46.5404 20.8301C45.7997 20.0857 44.8842 19.7128 43.7941 19.7128Z" fill="#EE282A"/>
<path d="M65.3698 27.2393H67.0637V15.8328H65.3698V27.2393Z" fill="#1DAF47"/>
<path d="M53.7707 25.2696C53.3518 25.7206 52.8406 25.9456 52.2372 25.9456C51.6233 25.9456 51.1071 25.7206 50.6883 25.2696C50.2696 24.8186 50.0609 24.2605 50.0609 23.5937C50.0609 22.9081 50.2696 22.3489 50.6883 21.9183C51.1071 21.4673 51.6233 21.2418 52.2372 21.2418C52.8502 21.2418 53.3668 21.4673 53.7851 21.9183C54.2039 22.3489 54.4136 22.9081 54.4136 23.5937C54.4136 24.2498 54.1991 24.8089 53.7707 25.2696ZM52.2372 19.7128C51.1365 19.7128 50.216 20.0857 49.4763 20.8301C48.7361 21.5652 48.366 22.4866 48.366 23.5937C48.366 24.6819 48.7409 25.6023 49.4907 26.3573C50.2306 27.1022 51.1461 27.4741 52.2372 27.4741C53.3273 27.4741 54.2429 27.1022 54.9836 26.3573C55.7335 25.6023 56.1079 24.6819 56.1079 23.5937C56.1079 22.4866 55.7335 21.5652 54.9836 20.8301C54.2429 20.0857 53.3273 19.7128 52.2372 19.7128Z" fill="#F9AF0B"/>
<path d="M70.1465 21.8591C70.5745 21.4286 71.0516 21.2127 71.5784 21.2127C71.9084 21.2127 72.2058 21.2884 72.4693 21.4406C72.732 21.5919 72.9117 21.7908 73.0091 22.0356L69.5625 23.4759C69.5423 22.8198 69.7374 22.2805 70.1465 21.8591ZM71.7094 25.9456C70.8627 25.9456 70.2381 25.5538 69.8396 24.7697L74.9961 22.6238L74.8216 22.1826C74.6842 21.8198 74.5069 21.4871 74.2877 21.1826C74.0683 20.8791 73.8178 20.6172 73.5359 20.3966C73.253 20.176 72.9407 20.0066 72.601 19.8893C72.2602 19.7715 71.8997 19.7128 71.519 19.7128C70.4878 19.7128 69.6204 20.0804 68.9191 20.8155C68.2275 21.5604 67.8821 22.4866 67.8821 23.5937C67.8821 24.6916 68.2469 25.613 68.9783 26.3573C69.708 27.1022 70.6188 27.4741 71.7094 27.4741C73.0732 27.4741 74.1445 26.9015 74.9238 25.7545L73.6082 24.8725C73.1311 25.5877 72.4988 25.9456 71.7094 25.9456Z" fill="#EE282A"/>
<path d="M62.112 25.2844C61.712 25.7252 61.2254 25.9458 60.6508 25.9458C60.047 25.9458 59.5362 25.7208 59.1175 25.2698C58.7082 24.8188 58.5034 24.2655 58.5034 23.6085C58.5034 22.9422 58.7126 22.384 59.1319 21.933C59.5604 21.4724 60.0663 21.2421 60.6508 21.2421C61.235 21.2421 61.7217 21.4675 62.112 21.9185C62.5111 22.3792 62.7111 22.9422 62.7111 23.6085C62.7111 24.2655 62.5111 24.8237 62.112 25.2844ZM62.5939 20.5806H62.5352C62.0485 20.002 61.3723 19.713 60.5049 19.713C59.5116 19.713 58.6447 20.0956 57.905 20.86C57.1744 21.6242 56.8091 22.5412 56.8091 23.6085C56.8091 24.6666 57.1744 25.5782 57.905 26.343C58.6548 27.0976 59.5212 27.4743 60.5049 27.4743C61.3723 27.4743 62.0485 27.1805 62.5352 26.5922H62.5939V26.9894C62.5939 28.6158 61.9072 29.4296 60.5337 29.4296C60.0961 29.4296 59.7068 29.302 59.3656 29.0475C59.0249 28.7924 58.7666 28.4592 58.5917 28.048L57.1155 28.6649C57.2621 29.0081 57.4472 29.3195 57.6712 29.5983C57.8952 29.8776 58.1555 30.1182 58.4524 30.3194C58.7492 30.5197 59.0735 30.6763 59.4244 30.7898C59.7748 30.9018 60.1449 30.958 60.5337 30.958C61.6832 30.958 62.5819 30.6074 63.2291 29.9076C63.8773 29.207 64.2012 28.21 64.2012 26.9162V19.9483H62.5939V20.5806Z" fill="#4F77C4"/>
<path d="M6 57.0039H18.2922V9.99982H6V57.0039Z" fill="#4F77C4"/>
</g>
<defs>
<clipPath id="clip0_308_3118">
<rect width="118" height="67.5885" fill="white"/>
</clipPath>
</defs>
</svg>
