<svg width="118" height="68" viewBox="0 0 118 68" fill="none" xmlns="http://www.w3.org/2000/svg">
<g clip-path="url(#clip0_308_3119)">
<path d="M113.727 0.610725C115.749 0.610725 117.389 2.24926 117.389 4.27296V63.3155C117.389 65.3371 115.751 66.9777 113.727 66.9777H4.27296C2.25139 66.9777 0.610729 65.3392 0.610729 63.3155V4.27296C0.610729 2.25139 2.24926 0.610725 4.27296 0.610725H113.727ZM113.727 0H4.27296C1.91304 0 0 1.91304 0 4.27296V63.3155C0 65.6754 1.91304 67.5885 4.27296 67.5885H113.727C116.087 67.5885 118 65.6754 118 63.3155V4.27296C118 1.91304 116.087 0 113.727 0Z" fill="#3D3E41"/>
<path d="M22.5777 14.844C22.7649 14.844 22.8585 14.9376 23.0457 15.0312C21.9224 15.4993 20.7991 16.7162 20.2375 19.3372L18.1781 19.8988C18.8334 18.0267 20.1439 14.844 22.5777 14.844ZM23.6074 15.7801C23.7946 16.3417 23.9818 16.997 23.9818 18.0267C23.9818 18.1203 23.9818 18.1203 23.9818 18.2139L21.2672 18.9628C21.8288 16.997 22.7649 16.1545 23.6074 15.7801ZM26.0412 17.465L24.8243 17.8395C24.8243 17.7459 24.8243 17.6522 24.8243 17.5586C24.8243 16.7162 24.7307 16.0609 24.5435 15.4993C25.1987 15.6865 25.7604 16.5289 26.0412 17.465ZM32.1257 18.9628C32.1257 18.8691 32.0321 18.7755 31.9385 18.7755C31.7513 18.7755 29.7855 18.5883 29.7855 18.5883C29.7855 18.5883 28.3814 17.1842 28.1942 17.0906C28.0069 16.9034 27.7261 16.997 27.6325 16.997C27.6325 16.997 27.3517 17.0906 26.8837 17.2778C26.4156 15.9673 25.5731 14.7504 24.169 14.7504H24.0754C23.701 14.1888 23.1393 14.0015 22.6713 14.0015C19.3014 13.9079 17.7101 18.1203 17.1484 20.2733C16.3996 20.4605 15.6507 20.7413 14.8082 21.0221C14.0594 21.2093 14.0594 21.303 13.9658 21.9582C13.8722 22.4262 12 37.2163 12 37.2163L26.8837 40.0245L34.9339 38.246C34.9339 38.246 32.1257 19.15 32.1257 18.9628Z" fill="#8DB849"/>
<path d="M31.8449 18.7756C31.7513 18.7756 29.7855 18.5884 29.7855 18.5884C29.7855 18.5884 28.3814 17.1843 28.1942 17.0907C28.1006 16.9971 28.1006 16.9971 28.007 16.9971L26.8837 40.0246L34.9339 38.2461C34.9339 38.2461 32.1257 19.1501 32.1257 18.9628C32.1257 18.8692 31.9385 18.7756 31.8449 18.7756Z" fill="#5A863E"/>
<path d="M24.1689 23.2682L23.1392 26.2636C23.1392 26.2636 22.2968 25.7956 21.1735 25.7956C19.5821 25.7956 19.4885 26.7316 19.4885 27.0125C19.4885 28.323 23.0456 28.8846 23.0456 32.0673C23.0456 34.5947 21.4543 36.186 19.3013 36.186C16.7739 36.186 15.4634 34.5947 15.4634 34.5947L16.1186 32.3481C16.1186 32.3481 17.4291 33.4714 18.5524 33.4714C19.3013 33.4714 19.5821 32.9098 19.5821 32.4417C19.5821 30.6632 16.6803 30.5696 16.6803 27.6677C16.6803 25.2339 18.4588 22.8937 21.9223 22.8937C23.5137 22.8001 24.1689 23.2682 24.1689 23.2682Z" fill="#FFFFFE"/>
<path d="M44.3883 28.7914C43.5458 28.3233 43.1714 27.9489 43.1714 27.4809C43.1714 26.8256 43.7331 26.4512 44.6691 26.4512C45.6988 26.4512 46.6349 26.9192 46.6349 26.9192L47.3838 24.6726C47.3838 24.6726 46.7285 24.111 44.7627 24.111C41.9545 24.111 40.0823 25.7023 40.0823 27.9489C40.0823 29.2594 41.0184 30.1955 42.1417 30.8507C43.0778 31.4124 43.4522 31.7868 43.4522 32.3485C43.4522 32.9101 42.9842 33.4718 42.0481 33.4718C40.7376 33.4718 39.4271 32.8165 39.4271 32.8165L38.6782 35.0631C38.6782 35.0631 39.8015 35.812 41.7673 35.812C44.5755 35.812 46.6349 34.4078 46.6349 31.8804C46.6349 30.4763 45.6052 29.4466 44.3883 28.7914ZM55.7149 24.0174C54.3107 24.0174 53.1874 24.6726 52.345 25.7023L53.5619 19.337H50.3792L47.2902 35.5311H50.4728L51.5025 30.0083C51.8769 27.9489 53.0002 26.6384 54.0299 26.6384C54.7788 26.6384 55.0596 27.1064 55.0596 27.8553C55.0596 28.3233 55.0596 28.7914 54.966 29.2594L53.7491 35.6248H56.9318L58.1487 29.0722C58.2423 28.4169 58.3359 27.5745 58.3359 27.0128C58.3359 25.1407 57.3998 24.0174 55.7149 24.0174ZM63.8587 33.2846C62.7355 33.2846 62.361 32.3485 62.361 31.2252C62.361 29.4466 63.2971 26.4512 64.982 26.4512C66.1053 26.4512 66.4798 27.3873 66.4798 28.3233C66.4798 30.3827 65.5437 33.2846 63.8587 33.2846ZM65.4501 24.0174C61.6122 24.0174 59.0847 27.4809 59.0847 31.3188C59.0847 33.7526 60.5825 35.7184 63.4843 35.7184C67.2286 35.7184 69.756 32.3485 69.756 28.4169C69.756 26.1704 68.4455 24.0174 65.4501 24.0174ZM74.8109 33.3782C73.9684 33.3782 73.5004 32.9101 73.5004 32.9101L74.062 29.9147C74.4364 27.9489 75.4661 26.6384 76.5894 26.6384C77.5255 26.6384 77.8999 27.5745 77.8999 28.4169C77.8063 30.4763 76.5894 33.3782 74.8109 33.3782ZM77.8999 24.0174C75.747 24.0174 74.5301 25.8895 74.5301 25.8895L74.7173 24.2046H71.909C71.8154 25.3279 71.5346 27.1064 71.2538 28.4169L69.0072 40.0243H72.1899L73.0323 35.3439H73.1259C73.1259 35.3439 73.7812 35.7184 74.9981 35.7184C78.7424 35.7184 81.1762 31.8804 81.1762 28.0425C81.1762 25.9831 80.2401 24.0174 77.8999 24.0174ZM85.6694 19.5242C84.6397 19.5242 83.8908 20.3667 83.8908 21.3963C83.8908 22.3324 84.4525 22.9877 85.3886 22.9877C86.4183 22.9877 87.2607 22.3324 87.2607 21.1155C87.2607 20.1794 86.6055 19.5242 85.6694 19.5242ZM81.2698 35.5311H84.4525L86.6055 24.2982H83.4228L81.2698 35.5311ZM94.6558 24.2982H92.4092L92.5028 23.7365C92.69 22.6133 93.3452 21.6772 94.3749 21.6772C94.9366 21.6772 95.4046 21.8644 95.4046 21.8644L96.0599 19.337C96.0599 19.337 95.4982 19.0562 94.3749 19.0562C93.2516 19.0562 92.1283 19.337 91.2859 20.0858C90.1626 21.0219 89.6945 22.3324 89.4137 23.6429L89.3201 24.2046H87.8224L87.3543 26.6384H88.8521L87.1671 35.5311H90.3498L92.0347 26.6384H94.1877L94.6558 24.2982ZM102.238 24.2982C102.238 24.2982 100.272 29.2594 99.3361 31.974C99.2425 31.1316 98.5873 24.2982 98.5873 24.2982H95.2174L97.0896 34.5951C97.0896 34.7823 97.0896 34.9695 96.9959 35.1567C96.6215 35.9056 95.9663 36.5608 95.311 37.0289C94.7494 37.4969 94.0005 37.7777 93.5325 37.9649L94.3749 40.6796C95.0302 40.586 96.3407 40.0243 97.464 38.9946C98.8681 37.6841 100.272 35.5311 101.583 32.7229L105.421 24.3918L102.238 24.2982Z" fill="#D6D6CD"/>
<path d="M38.6146 54.9998L40.1395 43.5759H41.6559L41.479 45.0923C41.6419 44.8564 41.8553 44.6093 42.1193 44.351C42.3833 44.087 42.7062 43.8651 43.0881 43.6854C43.4757 43.5001 43.9166 43.4074 44.4108 43.4074C45.0736 43.4074 45.6352 43.5675 46.0958 43.8876C46.5563 44.2021 46.8849 44.6851 47.0815 45.3366C47.278 45.9882 47.3089 46.8138 47.1741 47.8135C47.045 48.8132 46.795 49.6585 46.4243 50.3493C46.0536 51.0346 45.5847 51.5569 45.0174 51.9163C44.4501 52.2758 43.8042 52.4555 43.0797 52.4555C42.7147 52.4555 42.3973 52.3994 42.1277 52.287C41.8638 52.1803 41.6363 52.0399 41.4453 51.8658C41.26 51.6861 41.1083 51.4951 40.9904 51.2929C40.8724 51.0907 40.7826 50.897 40.7208 50.7116L40.1479 54.9998H38.6146ZM42.9534 51.2424C43.6273 51.2424 44.2142 50.97 44.7141 50.4252C45.2196 49.8748 45.5482 49.021 45.6998 47.8641C45.829 46.8699 45.7363 46.0808 45.4218 45.4967C45.1073 44.9126 44.5765 44.6205 43.8295 44.6205C43.0657 44.6205 42.4479 44.921 41.9761 45.522C41.5099 46.1173 41.2151 46.898 41.0915 47.8641C41.0072 48.4875 41.0157 49.0547 41.1168 49.5658C41.2235 50.0769 41.4285 50.4841 41.7318 50.7874C42.0407 51.0907 42.4479 51.2424 42.9534 51.2424Z" fill="#D6D6CD"/>
<path d="M50.7764 52.4555C50.2428 52.4555 49.785 52.3572 49.4031 52.1607C49.0212 51.9585 48.7432 51.6692 48.5691 51.2929C48.395 50.9166 48.3444 50.4617 48.4174 49.9281C48.5522 48.9621 48.9735 48.2432 49.6811 47.7714C50.3944 47.2996 51.4588 47.0469 52.8741 47.0132L54.3232 46.971L54.4243 46.2886C54.5029 45.7326 54.3934 45.3058 54.0957 45.0081C53.8036 44.7048 53.3768 44.5531 52.8151 44.5531C52.3602 44.5588 51.9277 44.6823 51.5177 44.9238C51.1077 45.1653 50.8185 45.536 50.65 46.0359H49.3105C49.4115 45.5304 49.6306 45.0811 49.9676 44.6879C50.3102 44.2892 50.7427 43.9775 51.265 43.7528C51.7929 43.5225 52.3911 43.4074 53.0594 43.4074C53.7727 43.4074 54.354 43.5225 54.8034 43.7528C55.2527 43.9831 55.5672 44.3088 55.7469 44.7301C55.9323 45.1457 55.9828 45.6371 55.8986 46.2044L55.0224 52.287H53.7334L53.8345 50.7032C53.4133 51.3828 52.9443 51.8461 52.4276 52.0933C51.9109 52.3348 51.3605 52.4555 50.7764 52.4555ZM51.3914 51.335C51.6666 51.335 51.9474 51.2817 52.2338 51.175C52.5203 51.0683 52.7871 50.925 53.0342 50.7453C53.2813 50.56 53.4891 50.355 53.6576 50.1303C53.8261 49.9 53.9272 49.6641 53.9609 49.4226L54.1799 47.9315L52.9836 47.9567C52.3658 47.968 51.8379 48.0354 51.3998 48.1589C50.9673 48.2825 50.6275 48.4763 50.3804 48.7402C50.1333 49.0042 49.976 49.3496 49.9086 49.7765C49.8412 50.2651 49.9479 50.647 50.2287 50.9222C50.5096 51.1974 50.8971 51.335 51.3914 51.335Z" fill="#D6D6CD"/>
<path d="M57.7664 52.287L58.9964 43.5759H60.4454L60.218 45.2524C60.4145 44.8368 60.656 44.4942 60.9425 44.2246C61.2289 43.9494 61.5434 43.7444 61.886 43.6096C62.2343 43.4748 62.5853 43.4074 62.9391 43.4074C63.0571 43.4074 63.1722 43.4158 63.2845 43.4327C63.3969 43.4495 63.4811 43.4776 63.5373 43.5169L63.3267 45.0249C63.2537 44.9856 63.1554 44.9603 63.0318 44.9491C62.9139 44.9323 62.8128 44.9238 62.7285 44.9238C62.2848 44.8901 61.872 44.9379 61.4901 45.0671C61.1138 45.1906 60.7993 45.4012 60.5465 45.6989C60.2938 45.9966 60.1309 46.3869 60.0579 46.8699L59.2997 52.287H57.7664Z" fill="#D6D6CD"/>
<path d="M67.3168 52.3292C66.7383 52.3292 66.3002 52.2477 66.0026 52.0848C65.7105 51.922 65.5224 51.6804 65.4381 51.3603C65.3595 51.0402 65.3539 50.647 65.4213 50.1809L66.2048 44.7132H64.8568L65.0337 43.5759H66.3985L67.0472 41.04H68.2604L67.8981 43.5675H69.7684L69.5999 44.7132H67.7296L66.963 50.0713C66.9012 50.5375 66.9377 50.8324 67.0725 50.9559C67.2129 51.0795 67.46 51.1413 67.8139 51.1413H68.7238L68.5721 52.1859C68.4654 52.2252 68.3053 52.2589 68.0919 52.287C67.8841 52.3151 67.6257 52.3292 67.3168 52.3292Z" fill="#D6D6CD"/>
<path d="M70.7983 52.287L72.062 43.5759H73.5279L73.3679 44.789C73.5532 44.5419 73.7751 44.3173 74.0334 44.1151C74.2974 43.9129 74.6007 43.7528 74.9433 43.6348C75.2915 43.5113 75.6847 43.4495 76.1228 43.4495C76.6507 43.4495 77.1141 43.5703 77.5128 43.8118C77.9172 44.0477 78.2177 44.3959 78.4143 44.8564C78.6109 45.317 78.6586 45.8842 78.5575 46.5582L77.7319 52.287H76.207L77.0158 46.7099C77.1169 46.0752 77.0214 45.5894 76.7293 45.2524C76.4429 44.9098 76.0385 44.7385 75.5162 44.7385C75.1511 44.7385 74.7973 44.8003 74.4547 44.9238C74.1177 45.0474 73.8312 45.2355 73.5953 45.4883C73.3651 45.741 73.2218 46.0556 73.1657 46.4319L72.3148 52.287H70.7983Z" fill="#D6D6CD"/>
<path d="M83.6637 52.4555C82.8886 52.4555 82.2315 52.2786 81.6923 51.9248C81.1587 51.5709 80.774 51.0626 80.5381 50.3999C80.3078 49.7371 80.2601 48.9424 80.3949 48.0157C80.5241 47.1002 80.788 46.2971 81.1868 45.6062C81.5912 44.9154 82.1023 44.3762 82.7201 43.9887C83.3435 43.6012 84.0568 43.4074 84.86 43.4074C85.6463 43.4074 86.2837 43.5843 86.7724 43.9381C87.261 44.292 87.598 44.7918 87.7833 45.4377C87.9743 46.078 88.0052 46.839 87.876 47.7208L87.7918 48.2937H81.886C81.8074 48.8441 81.8215 49.344 81.9282 49.7933C82.0349 50.237 82.2427 50.5909 82.5516 50.8548C82.8661 51.1188 83.2874 51.2508 83.8153 51.2508C84.3376 51.2508 84.8066 51.1216 85.2222 50.8633C85.6379 50.6049 85.9327 50.2314 86.1068 49.7428H87.5306C87.3453 50.3325 87.0504 50.8296 86.646 51.2339C86.2416 51.6383 85.7783 51.9444 85.2559 52.1522C84.7336 52.3544 84.2028 52.4555 83.6637 52.4555ZM82.0377 47.2406H86.4859C86.559 46.7408 86.5449 46.2914 86.4438 45.8927C86.3427 45.4883 86.1461 45.171 85.8541 44.9407C85.5676 44.7048 85.1745 44.5868 84.6746 44.5868C84.1691 44.5868 83.7283 44.7188 83.3519 44.9828C82.9813 45.2412 82.6836 45.5753 82.4589 45.9853C82.2399 46.3897 82.0995 46.8082 82.0377 47.2406Z" fill="#D6D6CD"/>
<path d="M89.4084 52.287L90.6384 43.5759H92.0875L91.86 45.2524C92.0566 44.8368 92.2981 44.4942 92.5845 44.2246C92.8709 43.9494 93.1855 43.7444 93.5281 43.6096C93.8763 43.4748 94.2273 43.4074 94.5812 43.4074C94.6991 43.4074 94.8143 43.4158 94.9266 43.4327C95.0389 43.4495 95.1232 43.4776 95.1793 43.5169L94.9687 45.0249C94.8957 44.9856 94.7974 44.9603 94.6738 44.9491C94.5559 44.9323 94.4548 44.9238 94.3705 44.9238C93.9268 44.8901 93.514 44.9379 93.1321 45.0671C92.7558 45.1906 92.4413 45.4012 92.1885 45.6989C91.9358 45.9966 91.7729 46.3869 91.6999 46.8699L90.9417 52.287H89.4084Z" fill="#D6D6CD"/>
</g>
<defs>
<clipPath id="clip0_308_3119">
<rect width="118" height="67.5885" fill="white"/>
</clipPath>
</defs>
</svg>
