<svg width="2884" height="1954" viewBox="0 0 2884 1954" fill="none" xmlns="http://www.w3.org/2000/svg">
<path d="M22.2601 1840.02C16.0601 1840.02 10.81 1837.87 6.50005 1833.56C2.17005 1829.25 0.0400391 1823.99 0.0400391 1817.79V1458.4C0.0400391 1451.87 2.17005 1446.51 6.50005 1442.36C10.81 1438.24 16.0601 1436.16 22.2601 1436.16H115.85C145.51 1436.16 172.55 1441.08 197.04 1450.91C221.53 1460.73 242.72 1474.7 260.66 1492.8C278.57 1510.9 292.46 1532.19 302.27 1556.67C312.1 1581.14 317.02 1608.21 317.02 1637.85C317.02 1667.5 312.11 1694.65 302.27 1719.3C292.46 1743.94 278.57 1765.31 260.66 1783.41C242.72 1801.51 221.53 1815.48 197.04 1825.3C172.55 1835.13 145.51 1840.04 115.85 1840.04H22.2601V1840.02ZM45.03 1800.21H115.86C146.55 1800.21 173.69 1793.23 197.3 1779.27C220.92 1765.29 239.44 1746.08 252.91 1721.6C266.34 1697.13 273.07 1669.2 273.07 1637.83C273.07 1606.45 266.34 1578.53 252.91 1554.06C239.44 1529.59 220.92 1510.45 197.3 1496.67C173.69 1482.87 146.54 1475.98 115.86 1475.98H45.03V1800.21Z" fill="#55ACEE"/>
<path d="M523.84 1842.61C495.92 1842.61 471.18 1836.41 449.64 1823.99C428.08 1811.58 411.12 1794.52 398.71 1772.79C386.3 1751.08 380.09 1726.43 380.09 1698.85C380.09 1670.93 386.3 1646.1 398.71 1624.4C411.12 1602.67 428.08 1585.61 449.64 1573.2C471.17 1560.78 495.92 1554.58 523.84 1554.58C551.41 1554.58 575.9 1560.79 597.27 1573.2C618.66 1585.61 635.55 1602.67 647.95 1624.4C660.36 1646.11 666.75 1670.93 667.08 1698.85C667.08 1726.43 660.87 1751.08 648.47 1772.79C636.06 1794.52 619.07 1811.58 597.54 1823.99C575.99 1836.41 551.42 1842.61 523.84 1842.61ZM523.84 1802.78C543.15 1802.78 560.38 1798.31 575.56 1789.34C590.71 1780.38 602.53 1768.06 610.98 1752.37C619.42 1736.68 623.65 1718.84 623.65 1698.84C623.65 1678.86 619.42 1660.93 610.98 1645.06C602.53 1629.22 590.71 1616.8 575.56 1607.84C560.38 1598.87 543.15 1594.4 523.84 1594.4C504.53 1594.4 487.31 1598.87 472.13 1607.84C456.96 1616.8 444.98 1629.22 436.2 1645.06C427.4 1660.93 423.01 1678.86 423.01 1698.84C423.01 1718.84 427.4 1736.68 436.2 1752.37C444.98 1768.06 456.96 1780.37 472.13 1789.34C487.31 1798.31 504.54 1802.78 523.84 1802.78Z" fill="#55ACEE"/>
<path d="M867.22 1842.61C840.32 1842.61 816.53 1836.5 795.85 1824.26C775.16 1812.02 758.96 1795.04 747.25 1773.33C735.52 1751.6 729.65 1726.79 729.65 1698.85C729.65 1670.59 735.86 1645.59 748.27 1623.86C760.68 1602.15 777.66 1585.17 799.2 1572.93C820.75 1560.7 845.49 1554.58 873.41 1554.58C900.98 1554.58 925.56 1560.7 947.09 1572.93C968.63 1585.17 985.54 1602.15 997.76 1623.86C1009.98 1645.59 1016.3 1670.59 1016.64 1698.85L990.79 1707.13C990.79 1733.34 985.44 1756.69 974.75 1777.19C964.07 1797.71 949.41 1813.73 930.8 1825.28C912.2 1836.84 891.01 1842.61 867.22 1842.61ZM873.41 1953.8C847.22 1953.8 823.68 1948.78 802.82 1938.8C781.96 1928.79 764.47 1914.84 750.34 1896.91C746.55 1892.08 744.99 1886.98 745.67 1881.65C746.36 1876.3 749.12 1872.08 753.95 1868.98C759.14 1865.53 764.64 1864.32 770.5 1865.37C776.37 1866.4 781.02 1869.33 784.47 1874.16C794.12 1886.23 806.54 1895.88 821.7 1903.12C836.87 1910.36 854.44 1913.98 874.44 1913.98C892.72 1913.98 909.36 1909.58 924.36 1900.79C939.35 1892 951.25 1879.33 960.03 1862.78C968.82 1846.24 973.22 1826.77 973.22 1804.34V1727.3L989.25 1692.14L1016.66 1698.85V1806.41C1016.66 1833.99 1010.46 1858.9 998.04 1881.12C985.63 1903.36 968.75 1921.02 947.38 1934.13C925.98 1947.23 901.33 1953.8 873.41 1953.8ZM873.41 1802.78C892.72 1802.78 909.94 1798.38 925.12 1789.59C940.29 1780.81 952.09 1768.57 960.55 1752.88C968.98 1737.19 973.21 1719.19 973.21 1698.84C973.21 1678.5 968.98 1660.4 960.55 1644.55C952.09 1628.7 940.29 1616.36 925.12 1607.57C909.94 1598.79 892.72 1594.39 873.41 1594.39C853.75 1594.39 836.35 1598.79 821.18 1607.57C806 1616.36 794.11 1628.69 785.5 1644.55C776.88 1660.4 772.57 1678.5 772.57 1698.84C772.57 1719.18 776.88 1737.19 785.5 1752.88C794.11 1768.57 806.01 1780.81 821.18 1789.59C836.35 1798.39 853.75 1802.78 873.41 1802.78Z" fill="#55ACEE"/>
<path d="M1380.69 1845.19C1352.77 1845.19 1326.65 1839.86 1302.35 1829.17C1278.05 1818.47 1256.67 1803.66 1238.22 1784.69C1219.77 1765.74 1205.47 1743.77 1195.31 1718.76C1185.13 1693.78 1180.06 1666.8 1180.06 1637.85C1180.06 1609.23 1185.13 1582.43 1195.31 1557.43C1205.47 1532.44 1219.69 1510.56 1237.97 1491.76C1256.23 1472.97 1277.54 1458.15 1301.84 1447.29C1326.14 1436.43 1352.41 1431 1380.69 1431C1405.85 1431 1428.43 1434.55 1448.43 1441.6C1468.43 1448.68 1487.91 1460.14 1506.86 1475.99C1509.96 1478.4 1511.95 1481.08 1512.81 1484C1513.66 1486.94 1513.75 1489.78 1513.07 1492.54C1512.37 1495.29 1511 1497.53 1508.93 1499.25C1508.58 1503.38 1506.68 1506.67 1503.25 1509.08C1499.79 1511.48 1495.83 1512.61 1491.36 1512.43C1486.88 1512.27 1482.39 1510.45 1477.91 1507C1464.8 1495.63 1450.68 1487.1 1435.51 1481.41C1420.33 1475.73 1402.06 1472.89 1380.69 1472.89C1358.97 1472.89 1338.62 1477.2 1319.68 1485.81C1300.71 1494.43 1284 1506.33 1269.51 1521.49C1255.04 1536.67 1243.74 1554.24 1235.65 1574.22C1227.54 1594.22 1223.5 1615.42 1223.5 1637.84C1223.5 1660.94 1227.54 1682.39 1235.65 1702.21C1243.74 1722.04 1255.04 1739.53 1269.51 1754.7C1284 1769.88 1300.71 1781.77 1319.68 1790.38C1338.62 1799.01 1358.97 1803.31 1380.69 1803.31C1398.95 1803.31 1416.37 1800.21 1432.92 1794C1449.46 1787.79 1465.14 1779 1479.96 1767.63C1484.8 1763.84 1489.79 1762.29 1494.96 1762.98C1500.14 1763.67 1504.53 1765.91 1508.15 1769.7C1511.77 1773.49 1513.58 1778.49 1513.58 1784.69C1513.58 1787.46 1513.06 1790.12 1512.01 1792.72C1510.98 1795.3 1509.43 1797.97 1507.36 1800.73C1489.44 1816.23 1469.7 1827.53 1448.15 1834.59C1426.63 1841.65 1404.13 1845.19 1380.69 1845.19Z" fill="#55ACEE"/>
<path d="M1656.81 1840.02C1642.68 1840.02 1630.01 1836.14 1618.81 1828.39C1607.59 1820.63 1598.9 1809.86 1592.69 1796.07C1586.49 1782.28 1583.38 1766.42 1583.38 1748.49V1457.88C1583.38 1451.33 1585.37 1446.08 1589.33 1442.1C1593.3 1438.14 1598.55 1436.15 1605.11 1436.15C1611.65 1436.15 1616.91 1438.14 1620.88 1442.1C1624.84 1446.08 1626.83 1451.33 1626.83 1457.88V1748.49C1626.83 1762.63 1629.67 1774.17 1635.36 1783.14C1641.04 1792.11 1648.19 1796.58 1656.81 1796.58H1669.75C1675.6 1796.58 1680.26 1798.57 1683.7 1802.53C1687.14 1806.51 1688.87 1811.76 1688.87 1818.31C1688.87 1824.86 1686.37 1830.11 1681.38 1834.07C1676.38 1838.05 1669.75 1840.02 1661.47 1840.02H1656.81Z" fill="#55ACEE"/>
<path d="M1855.91 1842.61C1827.98 1842.61 1803.24 1836.41 1781.69 1823.99C1760.15 1811.58 1743.18 1794.52 1730.76 1772.79C1718.35 1751.08 1712.15 1726.43 1712.15 1698.85C1712.15 1670.93 1718.36 1646.1 1730.76 1624.4C1743.18 1602.67 1760.15 1585.61 1781.69 1573.2C1803.24 1560.78 1827.98 1554.58 1855.91 1554.58C1883.49 1554.58 1907.95 1560.79 1929.33 1573.2C1950.71 1585.61 1967.6 1602.67 1980 1624.4C1992.41 1646.11 1998.8 1670.93 1999.15 1698.85C1999.15 1726.43 1992.94 1751.08 1980.53 1772.79C1968.11 1794.52 1951.13 1811.58 1929.6 1823.99C1908.03 1836.41 1883.48 1842.61 1855.91 1842.61ZM1855.91 1802.78C1875.21 1802.78 1892.43 1798.31 1907.61 1789.34C1922.78 1780.38 1934.58 1768.06 1943.04 1752.37C1951.48 1736.68 1955.7 1718.84 1955.7 1698.84C1955.7 1678.86 1951.48 1660.93 1943.04 1645.06C1934.58 1629.22 1922.78 1616.8 1907.61 1607.84C1892.43 1598.87 1875.21 1594.4 1855.91 1594.4C1836.59 1594.4 1819.36 1598.87 1804.19 1607.84C1789.01 1616.8 1777.05 1629.22 1768.25 1645.06C1759.45 1660.93 1755.07 1678.86 1755.07 1698.84C1755.07 1718.84 1759.45 1736.68 1768.25 1752.37C1777.05 1768.06 1789.01 1780.37 1804.19 1789.34C1819.35 1798.31 1836.59 1802.78 1855.91 1802.78Z" fill="#55ACEE"/>
<path d="M2198.22 1843.12C2174.09 1843.12 2152.45 1838.05 2133.33 1827.87C2114.2 1817.7 2099.1 1802.78 2088.08 1783.13C2077.04 1763.48 2071.54 1739.36 2071.54 1710.74V1578.87C2071.54 1572.67 2073.6 1567.5 2077.73 1563.36C2081.86 1559.23 2087.04 1557.17 2093.24 1557.17C2099.79 1557.17 2105.13 1559.23 2109.28 1563.36C2113.4 1567.5 2115.49 1572.67 2115.49 1578.87V1710.74C2115.49 1731.42 2119.35 1748.49 2127.12 1761.94C2134.88 1775.38 2145.48 1785.38 2158.93 1791.92C2172.37 1798.47 2187.54 1801.75 2204.44 1801.75C2220.64 1801.75 2235.2 1798.64 2248.13 1792.43C2261.06 1786.24 2271.32 1777.62 2278.89 1766.58C2286.48 1755.56 2290.27 1743.14 2290.27 1729.35H2320.27C2319.57 1751.08 2313.88 1770.47 2303.21 1787.53C2292.53 1804.59 2278.03 1818.13 2259.77 1828.11C2241.47 1838.13 2220.97 1843.12 2198.22 1843.12ZM2312.51 1840.02C2305.96 1840.02 2300.62 1837.96 2296.47 1833.83C2292.33 1829.69 2290.26 1824.33 2290.26 1817.79V1578.88C2290.26 1572.35 2292.32 1567.08 2296.47 1563.12C2300.61 1559.15 2305.95 1557.17 2312.51 1557.17C2319.04 1557.17 2324.4 1559.15 2328.53 1563.12C2332.67 1567.08 2334.74 1572.35 2334.74 1578.88V1817.79C2334.74 1824.33 2332.67 1829.68 2328.53 1833.83C2324.4 1837.96 2319.04 1840.02 2312.51 1840.02Z" fill="#55ACEE"/>
<path d="M2556.57 1842.61C2529.34 1842.61 2504.85 1836.31 2483.14 1823.73C2461.41 1811.16 2444.27 1793.99 2431.69 1772.28C2419.09 1750.56 2412.81 1725.92 2412.81 1698.34C2412.81 1671.11 2418.84 1646.62 2430.91 1624.91C2442.97 1603.18 2459.35 1586.05 2480.04 1573.46C2500.71 1560.88 2524.16 1554.58 2550.36 1554.58C2572.41 1554.58 2592.51 1559.33 2610.61 1568.8C2628.71 1578.3 2643.61 1590.77 2655.32 1606.3V1458.4C2655.32 1451.5 2657.4 1446.09 2661.53 1442.11C2665.67 1438.15 2671.01 1436.16 2677.57 1436.16C2684.12 1436.16 2689.46 1438.15 2693.61 1442.11C2697.75 1446.09 2699.81 1451.5 2699.81 1458.4V1699.89C2699.11 1726.78 2692.48 1751 2679.91 1772.54C2667.32 1794.08 2650.34 1811.17 2628.97 1823.74C2607.58 1836.31 2583.44 1842.61 2556.57 1842.61ZM2556.57 1802.78C2575.52 1802.78 2592.58 1798.22 2607.76 1789.08C2622.92 1779.95 2634.82 1767.55 2643.43 1751.85C2652.04 1736.17 2656.36 1718.33 2656.36 1698.33C2656.36 1678.68 2652.04 1660.94 2643.43 1645.06C2634.82 1629.22 2622.92 1616.8 2607.76 1607.84C2592.58 1598.87 2575.52 1594.4 2556.57 1594.4C2537.6 1594.4 2520.54 1598.87 2505.38 1607.84C2490.2 1616.8 2478.13 1629.22 2469.16 1645.06C2460.2 1660.93 2455.73 1678.68 2455.73 1698.33C2455.73 1718.33 2460.2 1736.17 2469.16 1751.85C2478.13 1767.55 2490.2 1779.95 2505.38 1789.08C2520.54 1798.22 2537.6 1802.78 2556.57 1802.78Z" fill="#55ACEE"/>
<path d="M2728.23 1446.25C2726.77 1446.25 2725.56 1445.76 2724.61 1444.82C2723.65 1443.88 2723.19 1442.67 2723.19 1441.2C2723.19 1439.73 2723.65 1438.53 2724.61 1437.58C2725.55 1436.63 2726.76 1436.16 2728.23 1436.16H2784.41C2785.87 1436.16 2787.08 1436.63 2788.02 1437.58C2788.97 1438.54 2789.44 1439.73 2789.44 1441.2C2789.44 1442.66 2788.97 1443.87 2788.02 1444.82C2787.08 1445.75 2785.87 1446.25 2784.41 1446.25H2728.23ZM2756.36 1518.17C2754.82 1518.17 2753.54 1517.64 2752.5 1516.59C2751.44 1515.54 2750.9 1514.24 2750.9 1512.7V1436.16H2761.83V1512.7C2761.83 1514.24 2761.32 1515.54 2760.26 1516.59C2759.21 1517.64 2757.9 1518.17 2756.36 1518.17Z" fill="#55ACEE"/>
<path d="M2806.98 1518.17C2805.44 1518.17 2804.15 1517.64 2803.1 1516.59C2802.05 1515.54 2801.53 1514.24 2801.53 1512.7V1441.62C2801.53 1440.01 2802.06 1438.7 2803.1 1437.68C2804.15 1436.65 2805.45 1436.15 2806.98 1436.15C2809.08 1436.15 2810.68 1437.13 2811.81 1439.08L2844.68 1504.93H2841.32L2873.33 1439.08C2874.46 1437.13 2876.08 1436.15 2878.18 1436.15C2879.72 1436.15 2881 1436.65 2882.05 1437.68C2883.1 1438.7 2883.65 1440.01 2883.65 1441.62V1512.7C2883.65 1514.24 2883.1 1515.54 2882.01 1516.59C2880.92 1517.64 2879.65 1518.17 2878.18 1518.17C2876.63 1518.17 2875.34 1517.64 2874.28 1516.59C2873.23 1515.54 2872.71 1514.24 2872.71 1512.7V1456.73L2874.8 1456.22L2847.3 1512.29C2846.11 1514.12 2844.53 1515.02 2842.56 1515.02C2840.26 1515.02 2838.58 1513.93 2837.52 1511.78L2810.34 1457.28L2812.43 1456.74V1512.71C2812.43 1514.25 2811.9 1515.55 2810.85 1516.6C2809.8 1517.65 2808.52 1518.17 2806.98 1518.17Z" fill="#55ACEE"/>
<path d="M1345.98 1139.55C1322.93 1179.97 1287.3 1211.61 1246.16 1239.4C1275.33 1254.27 1309.53 1262.88 1345.98 1262.88C1382.43 1262.88 1416.63 1254.27 1445.8 1239.4C1402.14 1211.31 1367.9 1178.5 1345.98 1139.55Z" fill="#55ACEE"/>
<path d="M1835.5 444.94H1832.89C1832.89 166.31 1616.25 0.22998 1345.98 0.22998C1075.74 0.22998 859.05 166.31 859.05 444.94H856.47C602.3 459.19 399.58 638.49 399.58 855.73C399.58 1082.21 619.86 1267.5 889.1 1267.5C1005.48 1267.5 1091.27 1255.47 1153.65 1235.65C917.94 1118.12 952.24 1044.93 952.24 1044.93C1047.58 1153.68 1179.55 1211.17 1197.6 1218.7C1281.78 1179.56 1306.73 1122 1305.16 1065.19C1193.62 1023.32 1036.2 865.4 1104.7 726.56C1124.36 686.74 1162.43 663.09 1206.83 663.09H1345.98H1485.12C1529.52 663.09 1567.58 686.74 1587.25 726.56C1655.75 865.4 1498.32 1023.32 1386.76 1065.19C1385.24 1121.25 1409.46 1178.07 1491 1217.16C1518.77 1205.18 1642.27 1148.15 1732.75 1044.93C1732.75 1044.93 1766.81 1117.55 1534.14 1234.28C1596.87 1254.9 1683.79 1267.5 1802.83 1267.5C2072.06 1267.5 2292.35 1082.21 2292.35 855.73C2292.37 638.49 2089.65 459.19 1835.5 444.94ZM891.05 1085.04C891.05 1085.04 846.04 961.6 972.3 975.02C972.3 975.02 903.21 1005.37 891.05 1085.04ZM1793.97 1085.04C1781.82 1005.37 1712.73 975.02 1712.73 975.02C1838.99 961.61 1793.97 1085.04 1793.97 1085.04Z" fill="#55ACEE"/>
</svg>
