<?xml version="1.0" encoding="utf-8"?>
<!-- Generator: Adobe Illustrator 25.4.1, SVG Export Plug-In . SVG Version: 6.00 Build 0)  -->
<svg version="1.1" id="Layer_1" xmlns="http://www.w3.org/2000/svg" xmlns:xlink="http://www.w3.org/1999/xlink" x="0px" y="0px"
	 viewBox="0 0 617.45 212.6" style="enable-background:new 0 0 617.45 212.6;" xml:space="preserve">
<style type="text/css">
	.st0{fill:#FFFFFF;}
</style>
<g>
	
		<rect x="202.42" y="-202.42" transform="matrix(-1.836970e-16 1 -1 -1.836970e-16 415.0233 -202.4249)" width="212.6" height="617.45"/>
	<path class="st0" d="M157.3,57.98l-27.2,68.69h-0.5l-26.33-68.69H77.31l40.87,96.64h20.99l43.97-96.64H157.3z M188.35,70.4
		c-6.79,8.28-10.19,20.25-10.19,35.9c0,15.65,3.39,27.62,10.19,35.9c6.79,8.28,16.73,12.42,29.81,12.42h38.38V134h-32.42
		c-3.48,0-6.38-0.58-8.69-1.74c-2.32-1.16-4.2-2.61-5.65-4.35c-1.45-1.74-2.53-3.64-3.23-5.71c-0.7-2.07-1.22-4.06-1.55-5.96h50.06
		V96.36H205c0.58-3.48,1.53-6.38,2.86-8.69c1.32-2.32,2.86-4.14,4.6-5.47c1.74-1.32,3.62-2.26,5.65-2.79
		c2.03-0.54,4.04-0.81,6.02-0.81h32.42V57.98h-38.38C205.08,57.98,195.14,62.12,188.35,70.4z M338.62,115.93
		c2.15-1.03,4.16-2.61,6.02-4.72c1.86-2.11,3.44-4.95,4.72-8.51c1.28-3.56,1.93-8.11,1.93-13.66c0-10.43-2.3-18.22-6.89-23.35
		c-4.6-5.13-12.07-7.7-22.42-7.7h-54.4v96.64h23.85v-34.53h16.02l18.76,34.53h26.83l-20.25-36.39
		C334.52,117.73,336.46,116.96,338.62,115.93z M325.89,95.06c-0.7,1.45-1.61,2.61-2.73,3.48c-1.12,0.87-2.4,1.45-3.85,1.74
		c-1.45,0.29-2.92,0.43-4.41,0.43h-23.48V78.6h23.48c1.49,0,2.96,0.12,4.41,0.37c1.45,0.25,2.73,0.75,3.85,1.49
		c1.12,0.75,2.03,1.82,2.73,3.23c0.7,1.41,1.06,3.27,1.06,5.59C326.94,91.69,326.59,93.61,325.89,95.06z M431.56,57.98l-27.2,68.69
		h-0.5l-26.33-68.69h-25.96l40.87,96.64h20.99l43.97-96.64H431.56z M462.28,70.4c-6.79,8.28-10.19,20.25-10.19,35.9
		c0,15.65,3.39,27.62,10.19,35.9c6.79,8.28,16.73,12.42,29.81,12.42h38.38V134h-32.42c-3.48,0-6.38-0.58-8.69-1.74
		c-2.32-1.16-4.2-2.61-5.65-4.35c-1.45-1.74-2.53-3.64-3.23-5.71c-0.7-2.07-1.22-4.06-1.55-5.96h50.06V96.36h-50.06
		c0.58-3.48,1.53-6.38,2.86-8.69c1.32-2.32,2.86-4.14,4.6-5.47c1.74-1.32,3.62-2.26,5.65-2.79c2.03-0.54,4.04-0.81,6.02-0.81h32.42
		V57.98h-38.38C479.01,57.98,469.07,62.12,462.28,70.4z M546.4,64.95c0.14-0.07,0.29-0.17,0.43-0.32c0.14-0.14,0.27-0.34,0.37-0.59
		c0.1-0.25,0.15-0.57,0.15-0.96c0-0.77-0.19-1.31-0.56-1.64c-0.37-0.32-0.88-0.49-1.51-0.49h-3.96v6.95h1.48v-2.73h1.58l1.41,2.73
		h1.74l-1.48-2.81C546.14,65.07,546.26,65.02,546.4,64.95z M545.29,63.86c-0.2,0.13-0.46,0.19-0.77,0.19h-1.71v-1.94h1.71
		c0.31,0,0.56,0.07,0.77,0.2c0.2,0.14,0.31,0.39,0.31,0.77C545.6,63.47,545.49,63.73,545.29,63.86z M550.65,61.77
		c-0.37-0.86-0.88-1.61-1.52-2.25c-0.64-0.64-1.39-1.15-2.25-1.52s-1.78-0.56-2.77-0.56c-0.99,0-1.91,0.19-2.77,0.56
		c-0.86,0.37-1.61,0.88-2.25,1.52c-0.64,0.64-1.15,1.39-1.52,2.25c-0.37,0.86-0.56,1.78-0.56,2.77c0,0.99,0.19,1.91,0.56,2.77
		c0.37,0.86,0.88,1.61,1.52,2.25c0.64,0.64,1.39,1.15,2.25,1.52c0.86,0.37,1.78,0.56,2.77,0.56c0.99,0,1.91-0.19,2.77-0.56
		s1.61-0.88,2.25-1.52c0.64-0.64,1.15-1.39,1.52-2.25c0.37-0.86,0.56-1.78,0.56-2.77C551.22,63.55,551.03,62.63,550.65,61.77z
		 M549.34,66.75c-0.3,0.69-0.7,1.29-1.21,1.8c-0.51,0.51-1.11,0.92-1.8,1.21c-0.69,0.3-1.43,0.45-2.21,0.45
		c-0.78,0-1.52-0.15-2.21-0.45c-0.69-0.3-1.29-0.7-1.8-1.21c-0.51-0.51-0.92-1.11-1.21-1.8c-0.3-0.69-0.45-1.43-0.45-2.21
		c0-0.78,0.15-1.52,0.45-2.21c0.3-0.69,0.7-1.29,1.21-1.8c0.51-0.51,1.11-0.92,1.8-1.21c0.69-0.3,1.43-0.45,2.21-0.45
		c0.78,0,1.52,0.15,2.21,0.45c0.69,0.3,1.29,0.7,1.8,1.21c0.51,0.51,0.92,1.11,1.21,1.8c0.3,0.69,0.45,1.43,0.45,2.21
		C549.79,65.32,549.64,66.06,549.34,66.75z"/>
</g>
</svg>
